<svg viewBox="0 0 1200 300" xmlns="http://www.w3.org/2000/svg">
<rect width="1200" height="300" fill="#0d1117"/>
<circle cx="0" cy="0" r="1" fill="#1c2330"/>
<circle cx="0" cy="40" r="1" fill="#1c2330"/>
<circle cx="0" cy="80" r="1" fill="#1c2330"/>
<circle cx="0" cy="120" r="1" fill="#1c2330"/>
<circle cx="0" cy="160" r="1" fill="#1c2330"/>
<circle cx="0" cy="200" r="1" fill="#1c2330"/>
<circle cx="0" cy="240" r="1" fill="#1c2330"/>
<circle cx="0" cy="280" r="1" fill="#1c2330"/>
<circle cx="40" cy="0" r="1" fill="#1c2330"/>
<circle cx="40" cy="40" r="1" fill="#1c2330"/>
<circle cx="40" cy="80" r="1" fill="#1c2330"/>
<circle cx="40" cy="120" r="1" fill="#1c2330"/>
<circle cx="40" cy="160" r="1" fill="#1c2330"/>
<circle cx="40" cy="200" r="1" fill="#1c2330"/>
<circle cx="40" cy="240" r="1" fill="#1c2330"/>
<circle cx="40" cy="280" r="1" fill="#1c2330"/>
<circle cx="80" cy="0" r="1" fill="#1c2330"/>
<circle cx="80" cy="40" r="1" fill="#1c2330"/>
<circle cx="80" cy="80" r="1" fill="#1c2330"/>
<circle cx="80" cy="120" r="1" fill="#1c2330"/>
<circle cx="80" cy="160" r="1" fill="#1c2330"/>
<circle cx="80" cy="200" r="1" fill="#1c2330"/>
<circle cx="80" cy="240" r="1" fill="#1c2330"/>
<circle cx="80" cy="280" r="1" fill="#1c2330"/>
<circle cx="120" cy="0" r="1" fill="#1c2330"/>
<circle cx="120" cy="40" r="1" fill="#1c2330"/>
<circle cx="120" cy="80" r="1" fill="#1c2330"/>
<circle cx="120" cy="120" r="1" fill="#1c2330"/>
<circle cx="120" cy="160" r="1" fill="#1c2330"/>
<circle cx="120" cy="200" r="1" fill="#1c2330"/>
<circle cx="120" cy="240" r="1" fill="#1c2330"/>
<circle cx="120" cy="280" r="1" fill="#1c2330"/>
<circle cx="160" cy="0" r="1" fill="#1c2330"/>
<circle cx="160" cy="40" r="1" fill="#1c2330"/>
<circle cx="160" cy="80" r="1" fill="#1c2330"/>
<circle cx="160" cy="120" r="1" fill="#1c2330"/>
<circle cx="160" cy="160" r="1" fill="#1c2330"/>
<circle cx="160" cy="200" r="1" fill="#1c2330"/>
<circle cx="160" cy="240" r="1" fill="#1c2330"/>
<circle cx="160" cy="280" r="1" fill="#1c2330"/>
<circle cx="200" cy="0" r="1" fill="#1c2330"/>
<circle cx="200" cy="40" r="1" fill="#1c2330"/>
<circle cx="200" cy="80" r="1" fill="#1c2330"/>
<circle cx="200" cy="120" r="1" fill="#1c2330"/>
<circle cx="200" cy="160" r="1" fill="#1c2330"/>
<circle cx="200" cy="200" r="1" fill="#1c2330"/>
<circle cx="200" cy="240" r="1" fill="#1c2330"/>
<circle cx="200" cy="280" r="1" fill="#1c2330"/>
<circle cx="240" cy="0" r="1" fill="#1c2330"/>
<circle cx="240" cy="40" r="1" fill="#1c2330"/>
<circle cx="240" cy="80" r="1" fill="#1c2330"/>
<circle cx="240" cy="120" r="1" fill="#1c2330"/>
<circle cx="240" cy="160" r="1" fill="#1c2330"/>
<circle cx="240" cy="200" r="1" fill="#1c2330"/>
<circle cx="240" cy="240" r="1" fill="#1c2330"/>
<circle cx="240" cy="280" r="1" fill="#1c2330"/>
<circle cx="280" cy="0" r="1" fill="#1c2330"/>
<circle cx="280" cy="40" r="1" fill="#1c2330"/>
<circle cx="280" cy="80" r="1" fill="#1c2330"/>
<circle cx="280" cy="120" r="1" fill="#1c2330"/>
<circle cx="280" cy="160" r="1" fill="#1c2330"/>
<circle cx="280" cy="200" r="1" fill="#1c2330"/>
<circle cx="280" cy="240" r="1" fill="#1c2330"/>
<circle cx="280" cy="280" r="1" fill="#1c2330"/>
<circle cx="320" cy="0" r="1" fill="#1c2330"/>
<circle cx="320" cy="40" r="1" fill="#1c2330"/>
<circle cx="320" cy="80" r="1" fill="#1c2330"/>
<circle cx="320" cy="120" r="1" fill="#1c2330"/>
<circle cx="320" cy="160" r="1" fill="#1c2330"/>
<circle cx="320" cy="200" r="1" fill="#1c2330"/>
<circle cx="320" cy="240" r="1" fill="#1c2330"/>
<circle cx="320" cy="280" r="1" fill="#1c2330"/>
<circle cx="360" cy="0" r="1" fill="#1c2330"/>
<circle cx="360" cy="40" r="1" fill="#1c2330"/>
<circle cx="360" cy="80" r="1" fill="#1c2330"/>
<circle cx="360" cy="120" r="1" fill="#1c2330"/>
<circle cx="360" cy="160" r="1" fill="#1c2330"/>
<circle cx="360" cy="200" r="1" fill="#1c2330"/>
<circle cx="360" cy="240" r="1" fill="#1c2330"/>
<circle cx="360" cy="280" r="1" fill="#1c2330"/>
<circle cx="400" cy="0" r="1" fill="#1c2330"/>
<circle cx="400" cy="40" r="1" fill="#1c2330"/>
<circle cx="400" cy="80" r="1" fill="#1c2330"/>
<circle cx="400" cy="120" r="1" fill="#1c2330"/>
<circle cx="400" cy="160" r="1" fill="#1c2330"/>
<circle cx="400" cy="200" r="1" fill="#1c2330"/>
<circle cx="400" cy="240" r="1" fill="#1c2330"/>
<circle cx="400" cy="280" r="1" fill="#1c2330"/>
<circle cx="440" cy="0" r="1" fill="#1c2330"/>
<circle cx="440" cy="40" r="1" fill="#1c2330"/>
<circle cx="440" cy="80" r="1" fill="#1c2330"/>
<circle cx="440" cy="120" r="1" fill="#1c2330"/>
<circle cx="440" cy="160" r="1" fill="#1c2330"/>
<circle cx="440" cy="200" r="1" fill="#1c2330"/>
<circle cx="440" cy="240" r="1" fill="#1c2330"/>
<circle cx="440" cy="280" r="1" fill="#1c2330"/>
<circle cx="480" cy="0" r="1" fill="#1c2330"/>
<circle cx="480" cy="40" r="1" fill="#1c2330"/>
<circle cx="480" cy="80" r="1" fill="#1c2330"/>
<circle cx="480" cy="120" r="1" fill="#1c2330"/>
<circle cx="480" cy="160" r="1" fill="#1c2330"/>
<circle cx="480" cy="200" r="1" fill="#1c2330"/>
<circle cx="480" cy="240" r="1" fill="#1c2330"/>
<circle cx="480" cy="280" r="1" fill="#1c2330"/>
<circle cx="520" cy="0" r="1" fill="#1c2330"/>
<circle cx="520" cy="40" r="1" fill="#1c2330"/>
<circle cx="520" cy="80" r="1" fill="#1c2330"/>
<circle cx="520" cy="120" r="1" fill="#1c2330"/>
<circle cx="520" cy="160" r="1" fill="#1c2330"/>
<circle cx="520" cy="200" r="1" fill="#1c2330"/>
<circle cx="520" cy="240" r="1" fill="#1c2330"/>
<circle cx="520" cy="280" r="1" fill="#1c2330"/>
<circle cx="560" cy="0" r="1" fill="#1c2330"/>
<circle cx="560" cy="40" r="1" fill="#1c2330"/>
<circle cx="560" cy="80" r="1" fill="#1c2330"/>
<circle cx="560" cy="120" r="1" fill="#1c2330"/>
<circle cx="560" cy="160" r="1" fill="#1c2330"/>
<circle cx="560" cy="200" r="1" fill="#1c2330"/>
<circle cx="560" cy="240" r="1" fill="#1c2330"/>
<circle cx="560" cy="280" r="1" fill="#1c2330"/>
<circle cx="600" cy="0" r="1" fill="#1c2330"/>
<circle cx="600" cy="40" r="1" fill="#1c2330"/>
<circle cx="600" cy="80" r="1" fill="#1c2330"/>
<circle cx="600" cy="120" r="1" fill="#1c2330"/>
<circle cx="600" cy="160" r="1" fill="#1c2330"/>
<circle cx="600" cy="200" r="1" fill="#1c2330"/>
<circle cx="600" cy="240" r="1" fill="#1c2330"/>
<circle cx="600" cy="280" r="1" fill="#1c2330"/>
<circle cx="640" cy="0" r="1" fill="#1c2330"/>
<circle cx="640" cy="40" r="1" fill="#1c2330"/>
<circle cx="640" cy="80" r="1" fill="#1c2330"/>
<circle cx="640" cy="120" r="1" fill="#1c2330"/>
<circle cx="640" cy="160" r="1" fill="#1c2330"/>
<circle cx="640" cy="200" r="1" fill="#1c2330"/>
<circle cx="640" cy="240" r="1" fill="#1c2330"/>
<circle cx="640" cy="280" r="1" fill="#1c2330"/>
<circle cx="680" cy="0" r="1" fill="#1c2330"/>
<circle cx="680" cy="40" r="1" fill="#1c2330"/>
<circle cx="680" cy="80" r="1" fill="#1c2330"/>
<circle cx="680" cy="120" r="1" fill="#1c2330"/>
<circle cx="680" cy="160" r="1" fill="#1c2330"/>
<circle cx="680" cy="200" r="1" fill="#1c2330"/>
<circle cx="680" cy="240" r="1" fill="#1c2330"/>
<circle cx="680" cy="280" r="1" fill="#1c2330"/>
<circle cx="720" cy="0" r="1" fill="#1c2330"/>
<circle cx="720" cy="40" r="1" fill="#1c2330"/>
<circle cx="720" cy="80" r="1" fill="#1c2330"/>
<circle cx="720" cy="120" r="1" fill="#1c2330"/>
<circle cx="720" cy="160" r="1" fill="#1c2330"/>
<circle cx="720" cy="200" r="1" fill="#1c2330"/>
<circle cx="720" cy="240" r="1" fill="#1c2330"/>
<circle cx="720" cy="280" r="1" fill="#1c2330"/>
<circle cx="760" cy="0" r="1" fill="#1c2330"/>
<circle cx="760" cy="40" r="1" fill="#1c2330"/>
<circle cx="760" cy="80" r="1" fill="#1c2330"/>
<circle cx="760" cy="120" r="1" fill="#1c2330"/>
<circle cx="760" cy="160" r="1" fill="#1c2330"/>
<circle cx="760" cy="200" r="1" fill="#1c2330"/>
<circle cx="760" cy="240" r="1" fill="#1c2330"/>
<circle cx="760" cy="280" r="1" fill="#1c2330"/>
<circle cx="800" cy="0" r="1" fill="#1c2330"/>
<circle cx="800" cy="40" r="1" fill="#1c2330"/>
<circle cx="800" cy="80" r="1" fill="#1c2330"/>
<circle cx="800" cy="120" r="1" fill="#1c2330"/>
<circle cx="800" cy="160" r="1" fill="#1c2330"/>
<circle cx="800" cy="200" r="1" fill="#1c2330"/>
<circle cx="800" cy="240" r="1" fill="#1c2330"/>
<circle cx="800" cy="280" r="1" fill="#1c2330"/>
<circle cx="840" cy="0" r="1" fill="#1c2330"/>
<circle cx="840" cy="40" r="1" fill="#1c2330"/>
<circle cx="840" cy="80" r="1" fill="#1c2330"/>
<circle cx="840" cy="120" r="1" fill="#1c2330"/>
<circle cx="840" cy="160" r="1" fill="#1c2330"/>
<circle cx="840" cy="200" r="1" fill="#1c2330"/>
<circle cx="840" cy="240" r="1" fill="#1c2330"/>
<circle cx="840" cy="280" r="1" fill="#1c2330"/>
<circle cx="880" cy="0" r="1" fill="#1c2330"/>
<circle cx="880" cy="40" r="1" fill="#1c2330"/>
<circle cx="880" cy="80" r="1" fill="#1c2330"/>
<circle cx="880" cy="120" r="1" fill="#1c2330"/>
<circle cx="880" cy="160" r="1" fill="#1c2330"/>
<circle cx="880" cy="200" r="1" fill="#1c2330"/>
<circle cx="880" cy="240" r="1" fill="#1c2330"/>
<circle cx="880" cy="280" r="1" fill="#1c2330"/>
<circle cx="920" cy="0" r="1" fill="#1c2330"/>
<circle cx="920" cy="40" r="1" fill="#1c2330"/>
<circle cx="920" cy="80" r="1" fill="#1c2330"/>
<circle cx="920" cy="120" r="1" fill="#1c2330"/>
<circle cx="920" cy="160" r="1" fill="#1c2330"/>
<circle cx="920" cy="200" r="1" fill="#1c2330"/>
<circle cx="920" cy="240" r="1" fill="#1c2330"/>
<circle cx="920" cy="280" r="1" fill="#1c2330"/>
<circle cx="960" cy="0" r="1" fill="#1c2330"/>
<circle cx="960" cy="40" r="1" fill="#1c2330"/>
<circle cx="960" cy="80" r="1" fill="#1c2330"/>
<circle cx="960" cy="120" r="1" fill="#1c2330"/>
<circle cx="960" cy="160" r="1" fill="#1c2330"/>
<circle cx="960" cy="200" r="1" fill="#1c2330"/>
<circle cx="960" cy="240" r="1" fill="#1c2330"/>
<circle cx="960" cy="280" r="1" fill="#1c2330"/>
<circle cx="1000" cy="0" r="1" fill="#1c2330"/>
<circle cx="1000" cy="40" r="1" fill="#1c2330"/>
<circle cx="1000" cy="80" r="1" fill="#1c2330"/>
<circle cx="1000" cy="120" r="1" fill="#1c2330"/>
<circle cx="1000" cy="160" r="1" fill="#1c2330"/>
<circle cx="1000" cy="200" r="1" fill="#1c2330"/>
<circle cx="1000" cy="240" r="1" fill="#1c2330"/>
<circle cx="1000" cy="280" r="1" fill="#1c2330"/>
<circle cx="1040" cy="0" r="1" fill="#1c2330"/>
<circle cx="1040" cy="40" r="1" fill="#1c2330"/>
<circle cx="1040" cy="80" r="1" fill="#1c2330"/>
<circle cx="1040" cy="120" r="1" fill="#1c2330"/>
<circle cx="1040" cy="160" r="1" fill="#1c2330"/>
<circle cx="1040" cy="200" r="1" fill="#1c2330"/>
<circle cx="1040" cy="240" r="1" fill="#1c2330"/>
<circle cx="1040" cy="280" r="1" fill="#1c2330"/>
<circle cx="1080" cy="0" r="1" fill="#1c2330"/>
<circle cx="1080" cy="40" r="1" fill="#1c2330"/>
<circle cx="1080" cy="80" r="1" fill="#1c2330"/>
<circle cx="1080" cy="120" r="1" fill="#1c2330"/>
<circle cx="1080" cy="160" r="1" fill="#1c2330"/>
<circle cx="1080" cy="200" r="1" fill="#1c2330"/>
<circle cx="1080" cy="240" r="1" fill="#1c2330"/>
<circle cx="1080" cy="280" r="1" fill="#1c2330"/>
<circle cx="1120" cy="0" r="1" fill="#1c2330"/>
<circle cx="1120" cy="40" r="1" fill="#1c2330"/>
<circle cx="1120" cy="80" r="1" fill="#1c2330"/>
<circle cx="1120" cy="120" r="1" fill="#1c2330"/>
<circle cx="1120" cy="160" r="1" fill="#1c2330"/>
<circle cx="1120" cy="200" r="1" fill="#1c2330"/>
<circle cx="1120" cy="240" r="1" fill="#1c2330"/>
<circle cx="1120" cy="280" r="1" fill="#1c2330"/>
<circle cx="1160" cy="0" r="1" fill="#1c2330"/>
<circle cx="1160" cy="40" r="1" fill="#1c2330"/>
<circle cx="1160" cy="80" r="1" fill="#1c2330"/>
<circle cx="1160" cy="120" r="1" fill="#1c2330"/>
<circle cx="1160" cy="160" r="1" fill="#1c2330"/>
<circle cx="1160" cy="200" r="1" fill="#1c2330"/>
<circle cx="1160" cy="240" r="1" fill="#1c2330"/>
<circle cx="1160" cy="280" r="1" fill="#1c2330"/>
<path d="M505,287 L505,287 L505,274 L940,274" stroke="#2EA3F2" stroke-width="2" fill="none" opacity="0.36" stroke-linecap="round"/>
<path d="M542,71 L542,71 L542,16 L469,16" stroke="#39d0d8" stroke-width="1.2" fill="none" opacity="0.33" stroke-linecap="round"/>
<path d="M696,57 L696,57 L696,287 L54,287" stroke="#39d0d8" stroke-width="1.2" fill="none" opacity="0.48" stroke-linecap="round"/>
<path d="M96,56 L163,56 L163,119 L163,119" stroke="#39d0d8" stroke-width="2" fill="none" opacity="0.36" stroke-linecap="round"/>
<path d="M1025,91 L788,91 L788,195 L788,195" stroke="#2EA3F2" stroke-width="1.2" fill="none" opacity="0.33" stroke-linecap="round"/>
<path d="M569,232 L569,232 L569,194 L206,194" stroke="#2EA3F2" stroke-width="1.2" fill="none" opacity="0.5" stroke-linecap="round"/>
<path d="M178,216 L432,216 L432,290 L432,290" stroke="#2EA3F2" stroke-width="2" fill="none" opacity="0.33" stroke-linecap="round"/>
<path d="M209,47 L209,47 L209,58 L23,58" stroke="#39d0d8" stroke-width="1.5" fill="none" opacity="0.53" stroke-linecap="round"/>
<path d="M313,81 L313,81 L939,81 L939,73" stroke="#1f6feb" stroke-width="1.5" fill="none" opacity="0.41" stroke-linecap="round"/>
<path d="M476,258 L476,258 L741,258 L741,112" stroke="#58a6ff" stroke-width="1.2" fill="none" opacity="0.34" stroke-linecap="round"/>
<path d="M96,56 L96,56 L96,185 L600,185" stroke="#58a6ff" stroke-width="1.5" fill="none" opacity="0.34" stroke-linecap="round"/>
<path d="M13,81 L13,81 L13,111 L191,111" stroke="#2EA3F2" stroke-width="1.2" fill="none" opacity="0.57" stroke-linecap="round"/>
<path d="M696,57 L696,57 L696,136 L1099,136" stroke="#39d0d8" stroke-width="1.5" fill="none" opacity="0.57" stroke-linecap="round"/>
<path d="M1197,219 L146,219 L146,87 L146,87" stroke="#1f6feb" stroke-width="1.5" fill="none" opacity="0.4" stroke-linecap="round"/>
<path d="M1140,112 L1140,112 L163,112 L163,119" stroke="#2EA3F2" stroke-width="2" fill="none" opacity="0.51" stroke-linecap="round"/>
<path d="M191,111 L191,111 L1099,111 L1099,136" stroke="#39d0d8" stroke-width="1.2" fill="none" opacity="0.59" stroke-linecap="round"/>
<path d="M54,287 L54,287 L747,287 L747,83" stroke="#1f6feb" stroke-width="1.2" fill="none" opacity="0.58" stroke-linecap="round"/>
<path d="M859,112 L1010,112 L1010,46 L1010,46" stroke="#58a6ff" stroke-width="1.5" fill="none" opacity="0.32" stroke-linecap="round"/>
<path d="M1195,204 L1195,204 L1195,47 L209,47" stroke="#58a6ff" stroke-width="1.5" fill="none" opacity="0.36" stroke-linecap="round"/>
<path d="M13,81 L13,81 L407,81 L407,279" stroke="#39d0d8" stroke-width="2" fill="none" opacity="0.34" stroke-linecap="round"/>
<path d="M505,287 L505,287 L777,287 L777,138" stroke="#39d0d8" stroke-width="1.5" fill="none" opacity="0.54" stroke-linecap="round"/>
<path d="M664,28 L664,28 L865,28 L865,174" stroke="#39d0d8" stroke-width="1.5" fill="none" opacity="0.29" stroke-linecap="round"/>
<path d="M1093,125 L1093,138 L777,138 L777,138" stroke="#39d0d8" stroke-width="2" fill="none" opacity="0.37" stroke-linecap="round"/>
<path d="M191,111 L191,142 L919,142 L919,142" stroke="#1f6feb" stroke-width="1.5" fill="none" opacity="0.27" stroke-linecap="round"/>
<path d="M940,274 L940,274 L864,274 L864,32" stroke="#1f6feb" stroke-width="2" fill="none" opacity="0.25" stroke-linecap="round"/>
<path d="M407,78 L178,78 L178,216 L178,216" stroke="#58a6ff" stroke-width="2" fill="none" opacity="0.44" stroke-linecap="round"/>
<path d="M469,16 L469,71 L542,71 L542,71" stroke="#2EA3F2" stroke-width="1.5" fill="none" opacity="0.32" stroke-linecap="round"/>
<path d="M283,260 L283,260 L541,260 L541,22" stroke="#39d0d8" stroke-width="1.2" fill="none" opacity="0.59" stroke-linecap="round"/>
<path d="M161,282 L161,282 L161,290 L432,290" stroke="#1f6feb" stroke-width="2" fill="none" opacity="0.55" stroke-linecap="round"/>
<path d="M865,174 L1103,174 L1103,134 L1103,134" stroke="#2EA3F2" stroke-width="1.5" fill="none" opacity="0.33" stroke-linecap="round"/>
<path d="M569,232 L206,232 L206,194 L206,194" stroke="#2EA3F2" stroke-width="2" fill="none" opacity="0.32" stroke-linecap="round"/>
<path d="M54,287 L54,287 L334,287 L334,236" stroke="#58a6ff" stroke-width="2" fill="none" opacity="0.43" stroke-linecap="round"/>
<path d="M146,87 L161,87 L161,282 L161,282" stroke="#58a6ff" stroke-width="1.2" fill="none" opacity="0.29" stroke-linecap="round"/>
<path d="M646,205 L646,205 L646,81 L313,81" stroke="#2EA3F2" stroke-width="1.5" fill="none" opacity="0.56" stroke-linecap="round"/>
<path d="M313,81 L313,81 L228,81 L228,12" stroke="#39d0d8" stroke-width="1.5" fill="none" opacity="0.4" stroke-linecap="round"/>
<path d="M664,28 L664,28 L323,28 L323,232" stroke="#58a6ff" stroke-width="2" fill="none" opacity="0.39" stroke-linecap="round"/>
<path d="M1182,98 L1182,46 L1010,46 L1010,46" stroke="#1f6feb" stroke-width="2" fill="none" opacity="0.51" stroke-linecap="round"/>
<path d="M741,112 L228,112 L228,12 L228,12" stroke="#58a6ff" stroke-width="1.5" fill="none" opacity="0.32" stroke-linecap="round"/>
<path d="M864,32 L864,32 L864,119 L163,119" stroke="#1f6feb" stroke-width="2" fill="none" opacity="0.31" stroke-linecap="round"/>
<path d="M432,290 L432,290 L432,142 L919,142" stroke="#39d0d8" stroke-width="2" fill="none" opacity="0.36" stroke-linecap="round"/>
<path d="M65,15 L65,15 L65,181 L758,181" stroke="#1f6feb" stroke-width="2" fill="none" opacity="0.55" stroke-linecap="round"/>
<path d="M1182,98 L1182,98 L1197,98 L1197,219" stroke="#1f6feb" stroke-width="1.5" fill="none" opacity="0.34" stroke-linecap="round"/>
<path d="M96,56 L96,56 L206,56 L206,194" stroke="#39d0d8" stroke-width="2" fill="none" opacity="0.43" stroke-linecap="round"/>
<path d="M958,270 L958,49 L778,49 L778,49" stroke="#1f6feb" stroke-width="2" fill="none" opacity="0.44" stroke-linecap="round"/>
<path d="M323,232 L96,232 L96,56 L96,56" stroke="#1f6feb" stroke-width="1.2" fill="none" opacity="0.51" stroke-linecap="round"/>
<path d="M758,181 L334,181 L334,236 L334,236" stroke="#1f6feb" stroke-width="2" fill="none" opacity="0.33" stroke-linecap="round"/>
<path d="M777,138 L777,138 L777,83 L747,83" stroke="#58a6ff" stroke-width="1.5" fill="none" opacity="0.36" stroke-linecap="round"/>
<path d="M569,232 L1197,232 L1197,219 L1197,219" stroke="#39d0d8" stroke-width="2" fill="none" opacity="0.32" stroke-linecap="round"/>
<path d="M407,78 L514,78 L514,283 L514,283" stroke="#1f6feb" stroke-width="1.2" fill="none" opacity="0.32" stroke-linecap="round"/>
<path d="M457,71 L457,134 L1103,134 L1103,134" stroke="#1f6feb" stroke-width="1.2" fill="none" opacity="0.58" stroke-linecap="round"/>
<path d="M611,259 L407,259 L407,78 L407,78" stroke="#39d0d8" stroke-width="1.5" fill="none" opacity="0.33" stroke-linecap="round"/>
<path d="M1197,219 L1197,219 L644,219 L644,108" stroke="#1f6feb" stroke-width="2" fill="none" opacity="0.31" stroke-linecap="round"/>
<path d="M1195,204 L209,204 L209,279 L209,279" stroke="#2EA3F2" stroke-width="2" fill="none" opacity="0.4" stroke-linecap="round"/>
<path d="M146,87 L146,134 L1103,134 L1103,134" stroke="#58a6ff" stroke-width="1.2" fill="none" opacity="0.41" stroke-linecap="round"/>
<path d="M334,236 L334,46 L1010,46 L1010,46" stroke="#58a6ff" stroke-width="1.2" fill="none" opacity="0.41" stroke-linecap="round"/>
<circle cx="206" cy="194" r="2.5" fill="#39ff14" opacity="0.78"/>
<circle cx="54" cy="287" r="3" fill="#39ff14" opacity="0.76"/>
<circle cx="65" cy="15" r="3" fill="#39ff14" opacity="0.75"/>
<circle cx="209" cy="279" r="2.5" fill="#39ff14" opacity="0.64"/>
<circle cx="758" cy="181" r="3" fill="#39ff14" opacity="0.57"/>
<circle cx="142" cy="23" r="3" fill="#39ff14" opacity="0.69"/>
<circle cx="457" cy="71" r="2" fill="#39ff14" opacity="0.78"/>
<circle cx="469" cy="16" r="2.5" fill="#39ff14" opacity="0.45"/>
<circle cx="407" cy="279" r="2.5" fill="#39ff14" opacity="0.69"/>
<circle cx="440" cy="172" r="2.5" fill="#39ff14" opacity="0.72"/>
<circle cx="611" cy="259" r="2.5" fill="#39ff14" opacity="0.48"/>
<circle cx="747" cy="83" r="3" fill="#39ff14" opacity="0.83"/>
<circle cx="432" cy="290" r="2.5" fill="#39ff14" opacity="0.68"/>
<circle cx="476" cy="258" r="3" fill="#39ff14" opacity="0.75"/>
<circle cx="777" cy="138" r="2.5" fill="#39ff14" opacity="0.6"/>
<circle cx="865" cy="174" r="3" fill="#39ff14" opacity="0.67"/>
<circle cx="569" cy="232" r="2.5" fill="#39ff14" opacity="0.78"/>
<circle cx="1022" cy="202" r="2" fill="#39ff14" opacity="0.53"/>
<circle cx="209" cy="47" r="2.5" fill="#39ff14" opacity="0.51"/>
<circle cx="1197" cy="219" r="2.5" fill="#39ff14" opacity="0.66"/>
<circle cx="600" cy="185" r="3" fill="#39ff14" opacity="0.57"/>
<circle cx="859" cy="112" r="2" fill="#39ff14" opacity="0.62"/>
<circle cx="664" cy="28" r="2.5" fill="#39ff14" opacity="0.48"/>
<circle cx="505" cy="287" r="2" fill="#39ff14" opacity="0.56"/>
<circle cx="939" cy="73" r="2.5" fill="#39ff14" opacity="0.55"/>
<circle cx="864" cy="32" r="3" fill="#39ff14" opacity="0.72"/>
<circle cx="1103" cy="134" r="2.5" fill="#39ff14" opacity="0.65"/>
<circle cx="541" cy="22" r="3" fill="#39ff14" opacity="0.83"/>
<circle cx="191" cy="111" r="2" fill="#39ff14" opacity="0.51"/>
<circle cx="1140" cy="112" r="2.5" fill="#39ff14" opacity="0.62"/>
<circle cx="563" cy="125" r="2" fill="#39ff14" opacity="0.71"/>
<circle cx="788" cy="195" r="3" fill="#39ff14" opacity="0.72"/>
<circle cx="313" cy="81" r="2.5" fill="#39ff14" opacity="0.76"/>
<circle cx="1182" cy="98" r="2" fill="#39ff14" opacity="0.53"/>
<circle cx="323" cy="232" r="2.5" fill="#39ff14" opacity="0.71"/>
<circle cx="13" cy="81" r="2.5" fill="#39ff14" opacity="0.7"/>
<circle cx="178" cy="216" r="2.5" fill="#39ff14" opacity="0.61"/>
<circle cx="23" cy="58" r="3" fill="#39ff14" opacity="0.55"/>
<circle cx="548" cy="33" r="3" fill="#39ff14" opacity="0.65"/>
<circle cx="161" cy="282" r="2.5" fill="#39ff14" opacity="0.72"/>
<rect x="327" y="108" width="56" height="37" rx="3" fill="none" stroke="#30363d" stroke-width="1.5" opacity="0.7"/>
<line x1="319" y1="115.4" x2="327" y2="115.4" stroke="#30363d" stroke-width="1.5"/>
<line x1="383" y1="115.4" x2="391" y2="115.4" stroke="#30363d" stroke-width="1.5"/>
<line x1="319" y1="122.8" x2="327" y2="122.8" stroke="#30363d" stroke-width="1.5"/>
<line x1="383" y1="122.8" x2="391" y2="122.8" stroke="#30363d" stroke-width="1.5"/>
<line x1="319" y1="130.2" x2="327" y2="130.2" stroke="#30363d" stroke-width="1.5"/>
<line x1="383" y1="130.2" x2="391" y2="130.2" stroke="#30363d" stroke-width="1.5"/>
<line x1="319" y1="137.6" x2="327" y2="137.6" stroke="#30363d" stroke-width="1.5"/>
<line x1="383" y1="137.6" x2="391" y2="137.6" stroke="#30363d" stroke-width="1.5"/>
<rect x="173" y="214" width="52" height="40" rx="3" fill="none" stroke="#30363d" stroke-width="1.5" opacity="0.7"/>
<line x1="165" y1="222.0" x2="173" y2="222.0" stroke="#30363d" stroke-width="1.5"/>
<line x1="225" y1="222.0" x2="233" y2="222.0" stroke="#30363d" stroke-width="1.5"/>
<line x1="165" y1="230.0" x2="173" y2="230.0" stroke="#30363d" stroke-width="1.5"/>
<line x1="225" y1="230.0" x2="233" y2="230.0" stroke="#30363d" stroke-width="1.5"/>
<line x1="165" y1="238.0" x2="173" y2="238.0" stroke="#30363d" stroke-width="1.5"/>
<line x1="225" y1="238.0" x2="233" y2="238.0" stroke="#30363d" stroke-width="1.5"/>
<line x1="165" y1="246.0" x2="173" y2="246.0" stroke="#30363d" stroke-width="1.5"/>
<line x1="225" y1="246.0" x2="233" y2="246.0" stroke="#30363d" stroke-width="1.5"/>
<rect x="172" y="220" width="74" height="60" rx="3" fill="none" stroke="#30363d" stroke-width="1.5" opacity="0.7"/>
<line x1="164" y1="232.0" x2="172" y2="232.0" stroke="#30363d" stroke-width="1.5"/>
<line x1="246" y1="232.0" x2="254" y2="232.0" stroke="#30363d" stroke-width="1.5"/>
<line x1="164" y1="244.0" x2="172" y2="244.0" stroke="#30363d" stroke-width="1.5"/>
<line x1="246" y1="244.0" x2="254" y2="244.0" stroke="#30363d" stroke-width="1.5"/>
<line x1="164" y1="256.0" x2="172" y2="256.0" stroke="#30363d" stroke-width="1.5"/>
<line x1="246" y1="256.0" x2="254" y2="256.0" stroke="#30363d" stroke-width="1.5"/>
<line x1="164" y1="268.0" x2="172" y2="268.0" stroke="#30363d" stroke-width="1.5"/>
<line x1="246" y1="268.0" x2="254" y2="268.0" stroke="#30363d" stroke-width="1.5"/>
<rect x="830" y="206" width="51" height="36" rx="3" fill="none" stroke="#30363d" stroke-width="1.5" opacity="0.7"/>
<line x1="822" y1="213.2" x2="830" y2="213.2" stroke="#30363d" stroke-width="1.5"/>
<line x1="881" y1="213.2" x2="889" y2="213.2" stroke="#30363d" stroke-width="1.5"/>
<line x1="822" y1="220.4" x2="830" y2="220.4" stroke="#30363d" stroke-width="1.5"/>
<line x1="881" y1="220.4" x2="889" y2="220.4" stroke="#30363d" stroke-width="1.5"/>
<line x1="822" y1="227.6" x2="830" y2="227.6" stroke="#30363d" stroke-width="1.5"/>
<line x1="881" y1="227.6" x2="889" y2="227.6" stroke="#30363d" stroke-width="1.5"/>
<line x1="822" y1="234.8" x2="830" y2="234.8" stroke="#30363d" stroke-width="1.5"/>
<line x1="881" y1="234.8" x2="889" y2="234.8" stroke="#30363d" stroke-width="1.5"/>
<rect x="271" y="219" width="70" height="38" rx="3" fill="none" stroke="#30363d" stroke-width="1.5" opacity="0.7"/>
<line x1="263" y1="226.6" x2="271" y2="226.6" stroke="#30363d" stroke-width="1.5"/>
<line x1="341" y1="226.6" x2="349" y2="226.6" stroke="#30363d" stroke-width="1.5"/>
<line x1="263" y1="234.2" x2="271" y2="234.2" stroke="#30363d" stroke-width="1.5"/>
<line x1="341" y1="234.2" x2="349" y2="234.2" stroke="#30363d" stroke-width="1.5"/>
<line x1="263" y1="241.8" x2="271" y2="241.8" stroke="#30363d" stroke-width="1.5"/>
<line x1="341" y1="241.8" x2="349" y2="241.8" stroke="#30363d" stroke-width="1.5"/>
<line x1="263" y1="249.4" x2="271" y2="249.4" stroke="#30363d" stroke-width="1.5"/>
<line x1="341" y1="249.4" x2="349" y2="249.4" stroke="#30363d" stroke-width="1.5"/>
<rect x="791" y="180" width="88" height="46" rx="3" fill="none" stroke="#30363d" stroke-width="1.5" opacity="0.7"/>
<line x1="783" y1="189.2" x2="791" y2="189.2" stroke="#30363d" stroke-width="1.5"/>
<line x1="879" y1="189.2" x2="887" y2="189.2" stroke="#30363d" stroke-width="1.5"/>
<line x1="783" y1="198.4" x2="791" y2="198.4" stroke="#30363d" stroke-width="1.5"/>
<line x1="879" y1="198.4" x2="887" y2="198.4" stroke="#30363d" stroke-width="1.5"/>
<line x1="783" y1="207.6" x2="791" y2="207.6" stroke="#30363d" stroke-width="1.5"/>
<line x1="879" y1="207.6" x2="887" y2="207.6" stroke="#30363d" stroke-width="1.5"/>
<line x1="783" y1="216.8" x2="791" y2="216.8" stroke="#30363d" stroke-width="1.5"/>
<line x1="879" y1="216.8" x2="887" y2="216.8" stroke="#30363d" stroke-width="1.5"/>
<defs>
<linearGradient id="fade" x1="0" y1="0" x2="0" y2="1">
<stop offset="0%" stop-color="#0d1117" stop-opacity="0.15"/>
<stop offset="100%" stop-color="#0d1117" stop-opacity="0.55"/>
</linearGradient>
</defs>
<rect width="1200" height="300" fill="url(#fade)"/>
<text x="600" y="140" text-anchor="middle" font-family="'Courier New', monospace" font-size="42" font-weight="bold" fill="#e6edf3" letter-spacing="2">BUDDHI RASHMIKA</text>
<text x="600" y="175" text-anchor="middle" font-family="'Courier New', monospace" font-size="16" fill="#2EA3F2" letter-spacing="4">EMBEDDED SYSTEMS · ROBOTICS · AI/ML</text>
</svg>